<?xml version="1.0" encoding="UTF-8"?>
<svg version="1.1" xmlns="http://www.w3.org/2000/svg" width="1000" height="1000">
<path d="M0 0 C4.0439613 0.00766445 8.08788832 -0.002191 12.13184465 -0.00973 C19.20775835 -0.02052969 26.28360329 -0.02025822 33.35952009 -0.01258852 C43.88186782 -0.00121431 54.40415782 -0.00705616 64.92650519 -0.01621344 C83.72228163 -0.03199257 102.51802743 -0.0306487 121.31380676 -0.0219767 C137.76247245 -0.01442503 154.21112692 -0.01246227 170.65979399 -0.01604463 C171.75158611 -0.01627379 172.84337824 -0.01650294 173.96825498 -0.01673904 C178.40038247 -0.01767308 182.83250996 -0.01862829 187.26463744 -0.01961833 C228.82711093 -0.02879187 270.38956492 -0.02048044 311.9520354 -0.00432764 C348.86418404 0.00990878 385.77630163 0.00863488 422.68844999 -0.00571062 C464.17572615 -0.02178037 505.66298509 -0.02814124 547.15026392 -0.01887383 C551.57423732 -0.0179117 555.99821072 -0.01697318 560.42218412 -0.01604463 C561.51145023 -0.0158074 562.60071634 -0.01557017 563.72299051 -0.01532575 C580.15985616 -0.01191575 596.59670936 -0.01589965 613.03357328 -0.02348329 C631.72616653 -0.03206477 650.4187244 -0.02990865 669.11131324 -0.01364106 C679.5682207 -0.00484051 690.02505152 -0.00424517 700.48195698 -0.01557958 C707.47209861 -0.02231966 714.46217896 -0.01809673 721.45231153 -0.00506528 C725.43139562 0.0020516 729.41032777 0.00455197 733.38940693 -0.00628323 C763.70559701 -0.08285375 763.70559701 -0.08285375 776.54098906 3.38540266 C777.76324832 3.70335403 777.76324832 3.70335403 779.01019968 4.02772866 C794.67692257 8.49654523 810.47730313 16.42037385 822.54098906 27.38540266 C823.36598906 28.09309798 824.19098906 28.80079329 825.04098906 29.52993391 C847.09836874 48.72926897 862.60855315 75.99417353 865.54098906 105.38540266 C866.06611352 115.19201522 865.95312606 125.02659078 865.92639172 134.84441361 C865.91872727 138.8883749 865.92858271 142.93230193 865.93612172 146.97625826 C865.94692141 154.05217196 865.94664994 161.1280169 865.93898024 168.2039337 C865.92760603 178.72628142 865.93344788 189.24857143 865.94260516 199.7709188 C865.95838428 218.56669523 865.95704042 237.36244103 865.94836842 256.15822036 C865.94081675 272.60688605 865.93885398 289.05554053 865.94243635 305.50420759 C865.94278009 307.14189578 865.94278009 307.14189578 865.94313076 308.81266858 C865.9440648 313.24479608 865.94502001 317.67692357 865.94601005 322.10905105 C865.95518359 363.67152453 865.94687216 405.23397853 865.93071936 446.796449 C865.91648294 483.70859764 865.91775684 520.62071523 865.93210234 557.5328636 C865.94817208 599.02013975 865.95453296 640.50739869 865.94526555 681.99467753 C865.94430342 686.41865092 865.9433649 690.84262433 865.94243635 695.26659773 C865.9420805 696.90049689 865.9420805 696.90049689 865.94171747 698.56740411 C865.93830747 715.00426977 865.94229137 731.44112296 865.94987501 747.87798689 C865.95845649 766.57058014 865.95630037 785.263138 865.94003278 803.95572685 C865.93123223 814.41263431 865.93063689 824.86946513 865.9419713 835.32637058 C865.94871138 842.31651222 865.94448845 849.30659256 865.931457 856.29672513 C865.92434012 860.27580923 865.92183974 864.25474137 865.93267494 868.23382054 C866.00924547 898.55001061 866.00924547 898.55001061 862.54098906 911.38540266 C862.32902148 912.20024217 862.1170539 913.01508167 861.89866306 913.85461329 C857.42984649 929.52133618 849.50601787 945.32171674 838.54098906 957.38540266 C837.83329374 958.21040266 837.12559843 959.03540266 836.39645781 959.88540266 C817.19712275 981.94278235 789.93221819 997.45296676 760.54098906 1000.38540266 C750.7343765 1000.91052713 740.89980094 1000.79753967 731.08197811 1000.77080533 C727.03801682 1000.76314088 722.99408979 1000.77299632 718.95013346 1000.78053532 C711.87421976 1000.79133501 704.79837482 1000.79106355 697.72245802 1000.78339384 C687.2001103 1000.77201964 676.67782029 1000.77786149 666.15547292 1000.78701876 C647.35969649 1000.80279789 628.56395069 1000.80145402 609.76817136 1000.79278203 C593.31950567 1000.78523036 576.87085119 1000.78326759 560.42218412 1000.78684996 C559.330392 1000.78707911 558.23859987 1000.78730827 557.11372314 1000.78754437 C552.68159564 1000.78847841 548.24946815 1000.78943361 543.81734067 1000.79042366 C502.25486718 1000.79959719 460.69241319 1000.79128577 419.12994272 1000.77513297 C382.21779408 1000.76089654 345.30567649 1000.76217044 308.39352812 1000.77651594 C266.90625196 1000.79258569 225.41899303 1000.79894657 183.93171419 1000.78967915 C179.50774079 1000.78871702 175.08376739 1000.7877785 170.65979399 1000.78684996 C169.57052788 1000.78661273 168.48126178 1000.78637549 167.35898761 1000.78613107 C150.92212195 1000.78272107 134.48526876 1000.78670498 118.04840483 1000.79428862 C99.35581158 1000.8028701 80.66325372 1000.80071398 61.97066487 1000.78444639 C51.51375741 1000.77564584 41.05692659 1000.7750505 30.60002114 1000.78638491 C23.6098795 1000.79312498 16.61979916 1000.78890206 9.62966659 1000.7758706 C5.65058249 1000.76875373 1.67165035 1000.76625335 -2.30742882 1000.77708855 C-32.62361889 1000.85365908 -32.62361889 1000.85365908 -45.45901094 997.38540266 C-46.27385045 997.17343508 -47.08868996 996.9614675 -47.92822157 996.74307667 C-63.59494446 992.27426009 -79.39532502 984.35043147 -91.45901094 973.38540266 C-92.28401094 972.67770735 -93.10901094 971.97001204 -93.95901094 971.24087141 C-116.01639063 952.04153635 -131.52657504 924.77663179 -134.45901094 895.38540266 C-134.98413541 885.57879011 -134.87114795 875.74421455 -134.84441361 865.92639172 C-134.83674916 861.88243042 -134.8466046 857.8385034 -134.8541436 853.79454706 C-134.86494329 846.71863337 -134.86467183 839.64278843 -134.85700212 832.56687163 C-134.84562792 822.0445239 -134.85146977 811.52223389 -134.86062705 800.99988653 C-134.87640617 782.20411009 -134.87506231 763.40836429 -134.86639031 744.61258496 C-134.85883864 728.16391927 -134.85687587 711.7152648 -134.86045824 695.26659773 C-134.8606874 694.1748056 -134.86091655 693.08301348 -134.86115265 691.95813674 C-134.86208669 687.52600925 -134.86304189 683.09388176 -134.86403194 678.66175427 C-134.87320547 637.09928079 -134.86489405 595.5368268 -134.84874125 553.97435632 C-134.83450482 517.06220768 -134.83577872 480.15009009 -134.85012423 443.23794173 C-134.86619397 401.75066557 -134.87255485 360.26340663 -134.86328743 318.7761278 C-134.86232531 314.3521544 -134.86138678 309.928181 -134.86045824 305.50420759 C-134.86022101 304.41494149 -134.85998378 303.32567538 -134.85973935 302.20340121 C-134.85632936 285.76653556 -134.86031326 269.32968236 -134.8678969 252.89281843 C-134.87647838 234.20022519 -134.87432226 215.50766732 -134.85805467 196.81507848 C-134.84925412 186.35817102 -134.84865878 175.90134019 -134.85999319 165.44443474 C-134.86673326 158.45429311 -134.86251034 151.46421276 -134.84947888 144.47408019 C-134.84236201 140.49499609 -134.83986163 136.51606395 -134.85069683 132.53698478 C-134.92726736 102.22079471 -134.92726736 102.22079471 -131.45901094 89.38540266 C-131.24704336 88.57056316 -131.03507579 87.75572365 -130.81668495 86.91619204 C-126.34786837 71.24946914 -118.42403975 55.44908858 -107.45901094 43.38540266 C-106.75131563 42.56040266 -106.04362032 41.73540266 -105.31447969 40.88540266 C-77.19556118 8.58065565 -41.15416359 -0.11206451 0 0 Z " fill="#182740" transform="translate(134.4590109437704,-0.38540266267955303)"/>
<path d="M0 0 C10.56 0 21.12 0 32 0 C32 124.41 32 248.82 32 377 C129.24290347 386.0412639 129.24290347 386.0412639 235 349 C247.25054139 335.16590568 251.37549787 319.4884274 251.1875 301.5 C251.18685547 300.32824219 251.18621094 299.15648437 251.18554688 297.94921875 C251.08531178 278.10267069 246.46662642 262.05972086 233 247 C232.33355469 246.25105469 231.66710937 245.50210938 230.98046875 244.73046875 C222.29395876 235.52824759 211.57298312 228.83462458 200.8125 222.3203125 C187.41120177 214.19853671 174.08643149 206.01045054 162 196 C161.18660156 195.33871094 160.37320313 194.67742187 159.53515625 193.99609375 C146.02235624 182.56218605 136.6001527 167.69358496 131 151 C130.70351563 150.14792969 130.40703125 149.29585937 130.1015625 148.41796875 C121.61653501 122.41682016 124.58854334 91.25502355 136.25 66.6875 C139.83329256 59.90955832 144.15679891 53.92699434 149 48 C149.92039062 46.83210938 149.92039062 46.83210938 150.859375 45.640625 C166.50082356 26.79067418 190.82288629 15.28531897 214 9 C214.63244629 8.82726562 215.26489258 8.65453125 215.91650391 8.4765625 C274.93706378 -7.35787203 362.68245472 3 408 3 C408 137.97 408 272.94 408 412 C397.44 412 386.88 412 376 412 C376 287.26 376 162.52 376 34 C274.5440403 26.50593759 274.5440403 26.50593759 177.25 65.3125 C163.03492704 80.18755849 158.61497269 99.1624256 158.76538086 119.24072266 C159.24933586 139.83764693 167.50641376 155.47971806 181.828125 169.83203125 C190.71291722 178.0794362 201.66036097 184.18604035 211.91308594 190.54589844 C226.68279807 199.70998959 240.45738425 208.91581319 253 221 C253.71671875 221.65355469 254.4334375 222.30710937 255.171875 222.98046875 C273.60203444 240.2679583 282.99263046 265.20729587 284.14379883 290.11083984 C285.00710238 320.15023428 280.37637371 346.83190265 260 370 C240.51668956 390.23847752 214.92195316 400.05555414 188 406 C187.20980469 406.17692383 186.41960937 406.35384766 185.60546875 406.53613281 C124.96021319 418.83231652 61.87926273 410 0 410 C0 274.7 0 139.4 0 0 Z " fill="#91A1C0" transform="translate(296,296)"/>
<path d="M0 0 C3.54865774 2.6795987 6.38009017 5.79455157 7.609375 10.16796875 C8.84714303 19.14178698 9.58576997 29.93537005 5 38 C1.38553148 41.52410681 -1.31456346 42.87515285 -6.375 43.25 C-10.39575947 42.97270624 -11.9672347 42.62293215 -15 40 C-20.2275478 31.70984844 -20.75052657 23.67345357 -20 14 C-18.82880923 9.11155157 -17.03787892 5.3209368 -13.9375 1.375 C-9.34930877 -0.77266398 -4.96437115 -0.88089593 0 0 Z " fill="#1F2D46" transform="translate(550,778)"/>
<path d="M0 0 C2.31 0 4.62 0 7 0 C7 8.91 7 17.82 7 27 C8.65 27 10.3 27 12 27 C12 28.65 12 30.3 12 32 C10.35 32 8.7 32 7 32 C7 35.3 7 38.6 7 42 C5.35 42 3.7 42 2 42 C2 38.7 2 35.4 2 32 C-3.94 32 -9.88 32 -16 32 C-16 25.25065154 -16 25.25065154 -13.26171875 20.99609375 C-12.68873047 20.09052734 -12.11574219 19.18496094 -11.52539062 18.25195312 C-10.91888672 17.32318359 -10.31238281 16.39441406 -9.6875 15.4375 C-8.79514648 14.03854492 -8.79514648 14.03854492 -7.88476562 12.61132812 C-6.77409808 10.87024817 -5.65778788 9.13274504 -4.53393555 7.40014648 C-2.91848293 5.00144111 -2.91848293 5.00144111 -1.74145508 2.19555664 C-1.1667749 1.47102295 -0.59209473 0.74648926 0 0 Z " fill="#DEDFE2" transform="translate(609,778)"/>
<path d="M0 0 C3.54865774 2.6795987 6.38009017 5.79455157 7.609375 10.16796875 C8.84714303 19.14178698 9.58576997 29.93537005 5 38 C1.38553148 41.52410681 -1.31456346 42.87515285 -6.375 43.25 C-10.39575947 42.97270624 -11.9672347 42.62293215 -15 40 C-20.2275478 31.70984844 -20.75052657 23.67345357 -20 14 C-18.82880923 9.11155157 -17.03787892 5.3209368 -13.9375 1.375 C-9.34930877 -0.77266398 -4.96437115 -0.88089593 0 0 Z M-11.8125 6.75 C-16.22928967 13.31208751 -15.90134867 21.32541933 -14.43359375 28.9375 C-13.06343442 34.36248783 -13.06343442 34.36248783 -9 38 C-6.0850745 38.5838196 -6.0850745 38.5838196 -3 38 C0.42884255 35.25692596 2.22206208 33.28995848 3 29 C3.26009058 26.04465353 3.27656733 23.09064288 3.3125 20.125 C3.35600586 18.93970703 3.35600586 18.93970703 3.40039062 17.73046875 C3.45877419 12.33223438 2.60890258 9.27176224 -1 5 C-5.52383809 2.73808096 -8.23851953 3.25544132 -11.8125 6.75 Z " fill="#E5E6E7" transform="translate(550,778)"/>
<path d="M0 0 C0.91644287 0.00523682 1.83288574 0.01047363 2.77709961 0.01586914 C3.76645508 0.0190918 4.75581055 0.02231445 5.77514648 0.02563477 C6.81606445 0.03401367 7.85698242 0.04239258 8.92944336 0.05102539 C10.49662109 0.05779297 10.49662109 0.05779297 12.09545898 0.06469727 C14.68600996 0.07652627 17.27644895 0.0930085 19.86694336 0.11352539 C19.86694336 1.76352539 19.86694336 3.41352539 19.86694336 5.11352539 C13.92694336 5.11352539 7.98694336 5.11352539 1.86694336 5.11352539 C1.86694336 9.40352539 1.86694336 13.69352539 1.86694336 18.11352539 C6.48694336 18.11352539 11.10694336 18.11352539 15.86694336 18.11352539 C15.86694336 19.43352539 15.86694336 20.75352539 15.86694336 22.11352539 C11.24694336 22.11352539 6.62694336 22.11352539 1.86694336 22.11352539 C1.86694336 27.06352539 1.86694336 32.01352539 1.86694336 37.11352539 C7.80694336 37.11352539 13.74694336 37.11352539 19.86694336 37.11352539 C19.86694336 38.76352539 19.86694336 40.41352539 19.86694336 42.11352539 C16.22112649 42.14240051 12.57533873 42.16028124 8.92944336 42.17602539 C7.36806641 42.18859375 7.36806641 42.18859375 5.77514648 42.20141602 C4.78579102 42.20463867 3.79643555 42.20786133 2.77709961 42.21118164 C1.4024353 42.21903687 1.4024353 42.21903687 0 42.22705078 C-2.13305664 42.11352539 -2.13305664 42.11352539 -3.13305664 41.11352539 C-3.23416017 38.16816969 -3.27274943 35.24674979 -3.26586914 32.30102539 C-3.26682587 31.41697021 -3.26778259 30.53291504 -3.26876831 29.62207031 C-3.26945016 27.7491041 -3.26759557 25.87613553 -3.26342773 24.00317383 C-3.25807953 21.12584152 -3.26337257 18.24866531 -3.26977539 15.37133789 C-3.26911461 13.55623338 -3.26783345 11.74112896 -3.26586914 9.92602539 C-3.26789337 9.05937256 -3.2699176 8.19271973 -3.27200317 7.29980469 C-3.24383364 0.17264309 -3.24383364 0.17264309 0 0 Z " fill="#E2E3E5" transform="translate(384.133056640625,777.886474609375)"/>
<path d="M0 0 C1.04929687 -0.01417969 2.09859375 -0.02835938 3.1796875 -0.04296875 C6.06047071 0.18245063 7.68740208 0.69785683 10.125 2.1875 C9.795 3.5075 9.465 4.8275 9.125 6.1875 C8.22136719 6.09210937 7.31773437 5.99671875 6.38671875 5.8984375 C5.20722656 5.78757812 4.02773438 5.67671875 2.8125 5.5625 C1.05486328 5.38847656 1.05486328 5.38847656 -0.73828125 5.2109375 C-4.04091167 4.89301218 -4.04091167 4.89301218 -6.875 7.1875 C-7.54176878 10.64499949 -7.54176878 10.64499949 -6.875 14.1875 C-4.94850726 16.01862469 -4.94850726 16.01862469 -1.875 17.1875 C9.65877215 22.47924684 9.65877215 22.47924684 12.125 27.1875 C12.73675806 31.3933367 12.40641402 33.60215883 10.5625 37.4375 C7.25054156 41.1740685 4.07784493 42.77627208 -0.89453125 43.46875 C-5.63234745 43.68616413 -8.8532113 42.60057322 -12.875 40.1875 C-12.545 38.5375 -12.215 36.8875 -11.875 35.1875 C-11.235625 35.5175 -10.59625 35.8475 -9.9375 36.1875 C-5.84412851 37.5241111 -2.14141956 37.82309323 2.125 37.1875 C4.88109295 35.76705419 4.88109295 35.76705419 6.125 33.1875 C6.29131587 30.18551576 6.29131587 30.18551576 5.125 27.1875 C2.78583023 25.68353185 0.84552659 24.65603092 -1.6875 23.625 C-6.52351299 21.59060763 -10.0330541 19.78641246 -12.875 15.1875 C-13.64394989 12.09048802 -13.54684432 9.3039543 -12.875 6.1875 C-8.86255005 1.11914217 -6.27620963 0.03836314 0 0 Z " fill="#E5E6E7" transform="translate(423.875,777.8125)"/>
<path d="M0 0 C3.07365786 1.80803404 4.43019732 2.86039464 6 6 C6.6115654 9.80099506 6.80252771 13.39823363 5.046875 16.90234375 C1.35820285 21.57678173 -3.38784854 24.20156556 -8.609375 26.93359375 C-11.91203925 29.38782734 -11.91203925 29.38782734 -13 37 C-7.39 37 -1.78 37 4 37 C4.33 38.65 4.66 40.3 5 42 C1.35418313 42.02887512 -2.29160463 42.04675585 -5.9375 42.0625 C-7.49887695 42.07506836 -7.49887695 42.07506836 -9.09179688 42.08789062 C-10.08115234 42.09111328 -11.07050781 42.09433594 -12.08984375 42.09765625 C-13.46450806 42.10551147 -13.46450806 42.10551147 -14.86694336 42.11352539 C-17 42 -17 42 -18 41 C-18.43159065 36.14209596 -18.62996852 31.23081892 -16 27 C-12.05196826 22.92073175 -7.49280374 19.9108902 -2.6015625 17.078125 C-0.83474546 16.0796877 -0.83474546 16.0796877 0 14 C0.33333333 10.5 0.33333333 10.5 0 7 C-3.71575751 4.52282833 -5.59986738 4.69654258 -10 5 C-12.83378132 5.8974827 -12.83378132 5.8974827 -15 7 C-15.66 5.68 -16.32 4.36 -17 3 C-11.50272545 -0.80969211 -6.50690992 -0.83698841 0 0 Z " fill="#E2E3E5" transform="translate(583,778)"/>
<path d="M0 0 C3.00197464 1.80118478 4.45166366 2.90332732 6 6 C6.3482958 11.31151101 6.55868595 14.77406044 3 19 C-0.57965258 22.02650538 -4.27716558 24.59842532 -8.375 26.875 C-11.93170107 29.31867094 -11.93170107 29.31867094 -13 37 C-7.39 37 -1.78 37 4 37 C4 38.65 4 40.3 4 42 C0.52085059 42.02887814 -2.95826831 42.04675687 -6.4375 42.0625 C-7.92733398 42.07506836 -7.92733398 42.07506836 -9.44726562 42.08789062 C-10.39150391 42.09111328 -11.33574219 42.09433594 -12.30859375 42.09765625 C-13.18314209 42.10289307 -14.05769043 42.10812988 -14.95874023 42.11352539 C-17 42 -17 42 -18 41 C-18.15227908 39.25464745 -18.22189694 37.50175759 -18.25 35.75 C-18.28867187 34.31914063 -18.28867187 34.31914063 -18.328125 32.859375 C-17.93176849 29.40541113 -17.12570006 27.74959526 -15 25 C-12.15234375 22.76171875 -12.15234375 22.76171875 -8.9375 20.6875 C-7.87402344 19.99011719 -6.81054688 19.29273438 -5.71484375 18.57421875 C-3 17 -3 17 -1 17 C0.180933 13.457201 0.27028374 10.71640139 0 7 C-3.73064844 4.51290104 -5.57631968 4.70008947 -10 5 C-13.32186171 5.91114536 -13.32186171 5.91114536 -16 7 C-16.33 5.68 -16.66 4.36 -17 3 C-11.56805279 -0.52342522 -6.28556266 -0.88973718 0 0 Z " fill="#E2E3E5" transform="translate(517,778)"/>
<path d="M0 0 C8.91 0 17.82 0 27 0 C27 1.65 27 3.3 27 5 C23.37 5 19.74 5 16 5 C16 17.21 16 29.42 16 42 C14.35 42 12.7 42 11 42 C11 29.79 11 17.58 11 5 C7.37 5 3.74 5 0 5 C0 3.35 0 1.7 0 0 Z " fill="#E4E5E7" transform="translate(441,778)"/>
<path d="M0 0 C0.33 0 0.66 0 1 0 C1 6.6 1 13.2 1 20 C-3.29 20 -7.58 20 -12 20 C-10.7527532 17.79007241 -9.50229753 15.58206337 -8.25 13.375 C-7.90195312 12.75753906 -7.55390625 12.14007812 -7.1953125 11.50390625 C-4.94947317 7.55289262 -2.62654992 3.71142923 0 0 Z " fill="#1D2C44" transform="translate(610,785)"/>
<path d="M0 0 C2.125 0.375 2.125 0.375 4 1 C4.625 3.375 4.625 3.375 5 6 C4.34 6.66 3.68 7.32 3 8 C1.68 8 0.36 8 -1 8 C-1.625 5.125 -1.625 5.125 -2 2 C-1.34 1.34 -0.68 0.68 0 0 Z " fill="#E4E5E6" transform="translate(471,813)"/>
</svg>
